<?xml version="1.0" encoding="utf-8"?>
<!-- Generator: Adobe Illustrator 19.0.0, SVG Export Plug-In . SVG Version: 6.00 Build 0)  -->
<svg version="1.1" id="Layer_1" xmlns="http://www.w3.org/2000/svg" xmlns:xlink="http://www.w3.org/1999/xlink" x="0px" y="0px"
	 viewBox="-49 141 512 512" style="enable-background:new -49 141 512 512;" xml:space="preserve">
<style type="text/css">
	.st0{fill:#C60B1E;}
	.st1{fill:#FFC400;}
	.st2{fill:#C8B100;}
	.st3{fill:none;stroke:#000000;stroke-width:0.399;}
	.st4{fill:none;stroke:#000000;stroke-width:0.399;stroke-linejoin:round;}
	.st5{fill:#005BBF;}
	.st6{fill:#AD1519;}
	.st7{fill:#CCCCCC;}
	.st8{fill:#AD1519;stroke:#000000;stroke-width:0.266;}
	.st9{fill:#C8B100;stroke:#000000;stroke-width:0.399;}
	.st10{fill:none;stroke:#000000;stroke-width:0.532;}
	.st11{fill:#C8B100;stroke:#000000;stroke-width:0.532;}
	.st12{fill:#C8B100;stroke:#000000;stroke-width:0.512;stroke-linejoin:round;}
	.st13{fill:#C7B500;stroke:#000000;stroke-width:0.532;}
	.st14{fill:none;stroke:#000000;stroke-width:0.625;}
</style>
<path class="st0" d="M-49,141h512v512H-49V141z"/>
<path class="st1" d="M-49,269h512v256H-49V269z"/>
<path class="st2" d="M119.2,378.9h22.8v-6h-22.8V378.9z"/>
<path class="st3" d="M119.2,378.9h22.8v-6h-22.8V378.9z"/>
<path class="st2" d="M121.6,382.9c0.1-0.1,0.2-0.1,0.4-0.1h17.1c0.2,0,0.3,0,0.5,0.1c-0.6-0.2-1-0.7-1-1.4c0-0.6,0.5-1.2,1-1.4
	c-0.2,0.1-0.3,0.1-0.5,0.1h-17.1c-0.2,0-0.3,0-0.5-0.1l0.1,0c0.6,0.2,1,0.7,1,1.3C122.6,382.2,122.2,382.7,121.6,382.9"/>
<path class="st4" d="M121.6,382.9c0.1-0.1,0.2-0.1,0.4-0.1h17.1c0.2,0,0.3,0,0.5,0.1c-0.6-0.2-1-0.7-1-1.4c0-0.6,0.5-1.2,1-1.4
	c-0.2,0.1-0.3,0.1-0.5,0.1h-17.1c-0.2,0-0.3,0-0.5-0.1l0.1,0c0.6,0.2,1,0.7,1,1.3C122.6,382.2,122.2,382.7,121.6,382.9L121.6,382.9z
	"/>
<path class="st2" d="M122.1,382.9h17.1c0.6,0,1,0.4,1,0.8c0,0.4-0.5,0.8-1,0.8h-17.1c-0.6,0-1.1-0.4-1.1-0.8
	C121,383.2,121.5,382.9,122.1,382.9"/>
<path class="st3" d="M122.1,382.9h17.1c0.6,0,1,0.4,1,0.8c0,0.4-0.5,0.8-1,0.8h-17.1c-0.6,0-1.1-0.4-1.1-0.8
	C121,383.2,121.5,382.9,122.1,382.9L122.1,382.9z"/>
<path class="st2" d="M122.1,378.9h17.1c0.6,0,1.1,0.3,1.1,0.7c0,0.4-0.5,0.7-1.1,0.7h-17.1c-0.6,0-1-0.3-1-0.7
	C121,379.3,121.5,378.9,122.1,378.9"/>
<path class="st3" d="M122.1,378.9h17.1c0.6,0,1.1,0.3,1.1,0.7c0,0.4-0.5,0.7-1.1,0.7h-17.1c-0.6,0-1-0.3-1-0.7
	C121,379.3,121.5,378.9,122.1,378.9z"/>
<path class="st5" d="M146.6,491.9c-1.6,0-3-1.3-4-3.4c-1-2-2.4-3.3-4-3.3c-1.5,0-3,1.3-4,3.3c-1,2.1-2.5,3.4-4,3.4
	c-1.6,0-3-1.4-4-3.6c-1-1.9-2.4-3.1-3.9-3.1c-1.5,0-2.9,1.2-3.9,3.2c-1,2.1-2.5,3.5-4,3.5v-9.4c1.6,0,3-1.4,4-3.6
	c1-2,2.4-3.2,3.9-3.2c1.5,0,2.9,1.2,3.9,3.1c1,2.1,2.4,3.5,4,3.5c1.6,0,3-1.3,4-3.4c1-2,2.5-3.3,4-3.3c1.5,0,2.9,1.2,4,3.3
	c1,2.1,2.4,3.4,4,3.4L146.6,491.9"/>
<path class="st2" d="M121.6,469.5c0.1,0.2,0.1,0.4,0.1,0.6c0,1.5-1.3,2.7-2.9,2.7h23.5c-1.6,0-2.9-1.2-2.9-2.7c0-0.2,0-0.4,0.1-0.6
	c-0.1,0-0.3,0.1-0.4,0.1h-17.1C121.9,469.5,121.8,469.5,121.6,469.5"/>
<path class="st4" d="M121.6,469.5c0.1,0.2,0.1,0.4,0.1,0.6c0,1.5-1.3,2.7-2.9,2.7h23.5c-1.6,0-2.9-1.2-2.9-2.7c0-0.2,0-0.4,0.1-0.6
	c-0.1,0-0.3,0.1-0.4,0.1h-17.1C121.9,469.5,121.8,469.5,121.6,469.5L121.6,469.5z"/>
<path class="st2" d="M122.1,467.9h17.1c0.6,0,1,0.4,1,0.8c0,0.4-0.5,0.8-1,0.8h-17.1c-0.6,0-1.1-0.4-1.1-0.8
	C121,468.3,121.5,467.9,122.1,467.9"/>
<path class="st3" d="M122.1,467.9h17.1c0.6,0,1,0.4,1,0.8c0,0.4-0.5,0.8-1,0.8h-17.1c-0.6,0-1.1-0.4-1.1-0.8
	C121,468.3,121.5,467.9,122.1,467.9L122.1,467.9z"/>
<path class="st2" d="M118.9,478.8h23.4v-6h-23.4V478.8z"/>
<path class="st3" d="M118.9,478.8h23.4v-6h-23.4V478.8z"/>
<path class="st6" d="M117.1,446.8c-2.3,1.3-3.9,2.7-3.6,3.4c0.1,0.6,0.9,1.1,1.9,1.8c1.7,1.2,2.7,3.2,1.9,4.2
	c1.4-1.1,2.2-2.8,2.2-4.6C119.5,449.6,118.6,447.9,117.1,446.8"/>
<path class="st3" d="M117.1,446.8c-2.3,1.3-3.9,2.7-3.6,3.4c0.1,0.6,0.9,1.1,1.9,1.8c1.7,1.2,2.7,3.2,1.9,4.2
	c1.4-1.1,2.2-2.8,2.2-4.6C119.5,449.6,118.6,447.9,117.1,446.8L117.1,446.8z"/>
<path class="st7" d="M122.3,467h16.6v-81.5h-16.6V467z"/>
<path class="st6" d="M155.9,415.9c-3.6-1.5-9.8-2.6-16.9-2.8c-2.4,0-5.2,0.2-8,0.7c-10,1.7-17.5,5.6-16.9,8.9c0,0.1,0,0.2,0.1,0.3
	c0,0-3.7-8.4-3.8-8.7c-0.7-3.6,7.7-8,18.8-9.9c3.2-0.5,6.5-0.8,9.8-0.8c7.1,0,13.2,0.9,16.9,2.3L155.9,415.9"/>
<path class="st4" d="M155.9,415.9c-3.6-1.5-9.8-2.6-16.9-2.8c-2.4,0-5.2,0.2-8,0.7c-10,1.7-17.5,5.6-16.9,8.9c0,0.1,0,0.2,0.1,0.3
	c0,0-3.7-8.4-3.8-8.7c-0.7-3.6,7.7-8,18.8-9.9c3.2-0.5,6.5-0.8,9.8-0.8c7.1,0,13.2,0.9,16.9,2.3L155.9,415.9"/>
<path class="st6" d="M122.2,426.2c-4.6-0.3-7.8-1.6-8.1-3.5c-0.3-1.5,1.3-3.2,4.1-4.8c1.2,0.1,2.6,0.3,4.1,0.3L122.2,426.2"/>
<path class="st3" d="M122.2,426.2c-4.6-0.3-7.8-1.6-8.1-3.5c-0.3-1.5,1.3-3.2,4.1-4.8c1.2,0.1,2.6,0.3,4.1,0.3L122.2,426.2"/>
<path class="st6" d="M138.9,419.9c2.9,0.4,5.1,1.2,6.1,2l0.1,0.2c0.5,1.1-2,3.3-6.3,5.8L138.9,419.9"/>
<path class="st3" d="M138.9,419.9c2.9,0.4,5.1,1.2,6.1,2l0.1,0.2c0.5,1.1-2,3.3-6.3,5.8L138.9,419.9"/>
<path class="st6" d="M111.9,441.9c-0.4-1.3,4.1-4,10.4-6.3c2.9-1,5.3-2.1,8.3-3.4c8.8-3.9,15.4-8.4,14.6-10l-0.1-0.2
	c0.5,0.4,1.2,8.4,1.2,8.4c0.8,1.5-5.2,5.9-13.3,9.8c-2.6,1.2-8.1,3.3-10.7,4.2c-4.6,1.6-9.3,4.6-8.8,5.8L111.9,441.9"/>
<path class="st4" d="M111.9,441.9c-0.4-1.3,4.1-4,10.4-6.3c2.9-1,5.3-2.1,8.3-3.4c8.8-3.9,15.4-8.4,14.6-10l-0.1-0.2
	c0.5,0.4,1.2,8.4,1.2,8.4c0.8,1.5-5.2,5.9-13.3,9.8c-2.6,1.2-8.1,3.3-10.7,4.2c-4.6,1.6-9.3,4.6-8.8,5.8L111.9,441.9L111.9,441.9
	L111.9,441.9z"/>
<path class="st2" d="M272,378.9h22.8v-6H272V378.9z"/>
<path class="st3" d="M272,378.9h22.8v-6H272V378.9z"/>
<path class="st2" d="M292.4,382.9c-0.1-0.1-0.3-0.1-0.4-0.1h-17.1c-0.2,0-0.3,0-0.5,0.1c0.6-0.2,1-0.7,1-1.4c0-0.6-0.5-1.2-1-1.4
	c0.1,0,0.3,0.1,0.5,0.1H292c0.2,0,0.3,0,0.5-0.1l-0.1,0c-0.6,0.2-1,0.7-1,1.3C291.4,382.2,291.8,382.7,292.4,382.9"/>
<path class="st4" d="M292.4,382.9c-0.1-0.1-0.3-0.1-0.4-0.1h-17.1c-0.2,0-0.3,0-0.5,0.1c0.6-0.2,1-0.7,1-1.4c0-0.6-0.5-1.2-1-1.4
	c0.1,0,0.3,0.1,0.5,0.1H292c0.2,0,0.3,0,0.5-0.1l-0.1,0c-0.6,0.2-1,0.7-1,1.3C291.4,382.2,291.8,382.7,292.4,382.9L292.4,382.9z"/>
<path class="st2" d="M274.9,382.9H292c0.6,0,1,0.4,1,0.8c0,0.4-0.5,0.8-1,0.8h-17.1c-0.6,0-1-0.4-1-0.8
	C273.8,383.2,274.3,382.9,274.9,382.9"/>
<path class="st3" d="M274.9,382.9H292c0.6,0,1,0.4,1,0.8c0,0.4-0.5,0.8-1,0.8h-17.1c-0.6,0-1-0.4-1-0.8
	C273.8,383.2,274.3,382.9,274.9,382.9L274.9,382.9z"/>
<path class="st2" d="M274.9,378.9H292c0.6,0,1,0.3,1,0.7c0,0.4-0.5,0.7-1,0.7h-17.1c-0.6,0-1-0.3-1-0.7
	C273.8,379.3,274.3,378.9,274.9,378.9"/>
<path class="st3" d="M274.9,378.9H292c0.6,0,1,0.3,1,0.7c0,0.4-0.5,0.7-1,0.7h-17.1c-0.6,0-1-0.3-1-0.7
	C273.8,379.3,274.3,378.9,274.9,378.9L274.9,378.9z"/>
<path class="st5" d="M267.5,491.9c1.6,0,3-1.2,4-3.1c1-1.9,2.4-3,4-3c1.5,0,3,1.2,4,3.1c1,1.9,2.5,3.1,4,3.1c1.6,0,3-1.3,4-3.3
	c1-1.8,2.4-2.9,3.9-2.9c1.5,0,2.9,1.1,4,3c1,1.9,2.5,3.2,4,3.2v-8.7c-1.6,0-3-1.3-4-3.3c-1-1.9-2.4-2.9-4-2.9
	c-1.5,0-2.9,1.1-3.9,2.9c-1,2-2.5,3.3-4,3.3c-1.6,0-3-1.2-4-3.1c-1-1.9-2.5-3-4-3c-1.5,0-2.9,1.1-4,3c-1,2-2.4,3.2-4,3.2
	L267.5,491.9"/>
<path class="st2" d="M292.4,469.5c-0.1,0.2-0.1,0.4-0.1,0.6c0,1.5,1.3,2.7,2.9,2.7h-23.5c1.6,0,2.9-1.2,2.9-2.7c0-0.2,0-0.4-0.1-0.6
	c0.1,0,0.3,0.1,0.4,0.1h17.1C292.1,469.5,292.2,469.5,292.4,469.5"/>
<path class="st4" d="M292.4,469.5c-0.1,0.2-0.1,0.4-0.1,0.6c0,1.5,1.3,2.7,2.9,2.7h-23.5c1.6,0,2.9-1.2,2.9-2.7c0-0.2,0-0.4-0.1-0.6
	c0.1,0,0.3,0.1,0.4,0.1h17.1C292.1,469.5,292.2,469.5,292.4,469.5L292.4,469.5z"/>
<path class="st2" d="M274.9,467.9H292c0.6,0,1,0.4,1,0.8c0,0.4-0.5,0.8-1,0.8h-17.1c-0.6,0-1-0.4-1-0.8
	C273.8,468.3,274.3,467.9,274.9,467.9"/>
<path class="st3" d="M274.9,467.9H292c0.6,0,1,0.4,1,0.8c0,0.4-0.5,0.8-1,0.8h-17.1c-0.6,0-1-0.4-1-0.8
	C273.8,468.3,274.3,467.9,274.9,467.9L274.9,467.9z"/>
<path class="st2" d="M271.7,478.8h23.4v-6h-23.4V478.8z"/>
<path class="st3" d="M271.7,478.8h23.4v-6h-23.4V478.8z"/>
<path class="st6" d="M296.9,446.8c2.3,1.3,3.9,2.7,3.6,3.4c-0.1,0.6-0.9,1.1-1.9,1.8c-1.7,1.2-2.7,3.2-1.9,4.2
	c-1.4-1.1-2.2-2.8-2.2-4.6C294.5,449.6,295.4,447.9,296.9,446.8"/>
<path class="st3" d="M296.9,446.8c2.3,1.3,3.9,2.7,3.6,3.4c-0.1,0.6-0.9,1.1-1.9,1.8c-1.7,1.2-2.7,3.2-1.9,4.2
	c-1.4-1.1-2.2-2.8-2.2-4.6C294.5,449.6,295.4,447.9,296.9,446.8L296.9,446.8z"/>
<path class="st7" d="M275.1,467h16.6v-81.5h-16.6V467z"/>
<path class="st6" d="M258.1,415.9c3.6-1.5,9.8-2.6,16.9-2.8c2.4,0,5.2,0.2,8,0.7c10,1.7,17.5,5.6,16.9,8.9c0,0.1,0,0.2,0,0.3
	c0,0,3.7-8.4,3.8-8.7c0.7-3.6-7.7-8-18.8-9.9c-3.2-0.5-6.5-0.8-9.8-0.8c-7.1,0-13.2,0.9-16.9,2.3L258.1,415.9"/>
<path class="st4" d="M258.1,415.9c3.6-1.5,9.8-2.6,16.9-2.8c2.4,0,5.2,0.2,8,0.7c10,1.7,17.5,5.6,16.9,8.9c0,0.1,0,0.2,0,0.3
	c0,0,3.7-8.4,3.8-8.7c0.7-3.6-7.7-8-18.8-9.9c-3.2-0.5-6.5-0.8-9.8-0.8c-7.1,0-13.2,0.9-16.9,2.3L258.1,415.9"/>
<path class="st6" d="M291.8,426.2c4.6-0.3,7.8-1.6,8.1-3.5c0.3-1.5-1.3-3.2-4.1-4.8c-1.2,0.1-2.6,0.3-4.1,0.3L291.8,426.2"/>
<path class="st3" d="M291.8,426.2c4.6-0.3,7.8-1.6,8.1-3.5c0.3-1.5-1.3-3.2-4.1-4.8c-1.2,0.1-2.6,0.3-4.1,0.3L291.8,426.2"/>
<path class="st6" d="M275.1,419.9c-2.9,0.4-5,1.2-6.1,2l-0.1,0.2c-0.5,1.1,2,3.3,6.3,5.8L275.1,419.9"/>
<path class="st3" d="M275.1,419.9c-2.9,0.4-5,1.2-6.1,2l-0.1,0.2c-0.5,1.1,2,3.3,6.3,5.8L275.1,419.9"/>
<path class="st6" d="M302.1,441.9c0.4-1.3-4.1-4-10.4-6.3c-2.9-1-5.3-2.1-8.3-3.4c-8.8-3.9-15.4-8.4-14.6-10l0.1-0.2
	c-0.5,0.4-1.2,8.4-1.2,8.4c-0.8,1.5,5.2,5.9,13.3,9.8c2.6,1.2,8.1,3.3,10.7,4.2c4.6,1.6,9.3,4.6,8.8,5.8L302.1,441.9"/>
<path class="st4" d="M302.1,441.9c0.4-1.3-4.1-4-10.4-6.3c-2.9-1-5.3-2.1-8.3-3.4c-8.8-3.9-15.4-8.4-14.6-10l0.1-0.2
	c-0.5,0.4-1.2,8.4-1.2,8.4c-0.8,1.5,5.2,5.9,13.3,9.8c2.6,1.2,8.1,3.3,10.7,4.2c4.6,1.6,9.3,4.6,8.8,5.8L302.1,441.9L302.1,441.9
	L302.1,441.9z"/>
<path class="st8" d="M206.3,328.1c6.8,0,12.9,1,16.8,2.6c2.3,1,5.3,1.8,8.6,2.2c2.5,0.3,4.9,0.4,7,0.2c2.8-0.1,6.8,0.8,10.9,2.5
	c3.3,1.5,6.1,3.3,8,5l-1.6,1.4l-0.5,4.1l-4.4,5l-2.2,1.9l-5.2,4.2l-2.7,0.2l-0.8,2.3l-33.7-4l-33.8,4l-0.8-2.3l-2.7-0.2l-5.2-4.2
	l-2.2-1.9l-4.4-5l-0.5-4.1l-1.6-1.4c1.9-1.7,4.7-3.5,8-5c4-1.8,8.1-2.6,10.9-2.5c2.1,0.2,4.5,0.1,7-0.2c3.3-0.4,6.4-1.2,8.6-2.2
	C193.8,329.1,199.5,328.1,206.3,328.1L206.3,328.1z"/>
<path class="st9" d="M206.8,362.3c-12.7,0-24.1,1.6-32.1,4.1c0.7-0.3,0.6-1.1-0.2-3.3c-1-2.6-2.6-2.5-2.6-2.5
	c8.9-2.6,21.2-4.3,35-4.3c13.8,0,26.2,1.7,35.1,4.3c0,0-1.6-0.1-2.6,2.5c-0.8,2.1-0.9,3-0.2,3.3
	C231.1,363.9,219.5,362.3,206.8,362.3"/>
<path class="st7" d="M207.2,493.6c-13.4,0-26.7-3.3-37.8-8.7c-8.2-4.1-13.7-12.3-13.7-21.7v-34.1h102.8v34.1
	c0,9.4-5.5,17.6-13.7,21.7C233.7,490.3,220.6,493.6,207.2,493.6"/>
<path class="st10" d="M207.2,493.6c-13.4,0-26.7-3.3-37.8-8.7c-8.2-4.1-13.7-12.3-13.7-21.7v-34.1h102.8v34.1
	c0,9.4-5.5,17.6-13.7,21.7C233.7,490.3,220.6,493.6,207.2,493.6L207.2,493.6z"/>
<path class="st7" d="M207,429h51.5v-57H207V429z"/>
<path class="st10" d="M207,429h51.5v-57H207V429z"/>
<path class="st6" d="M207,463.1c0,13.5-11.4,24.4-25.6,24.4c-14.2,0-25.8-10.9-25.8-24.4V429H207L207,463.1"/>
<path class="st11" d="M166.9,483.3c1.6,0.9,3.8,2.3,6.2,2.8l-0.1-58.3h-6V483.3z"/>
<path class="st12" d="M155.5,462.7c0.2,7.2,3,12.5,5.9,16V428h-5.8L155.5,462.7L155.5,462.7z"/>
<path class="st13" d="M178.3,487.4c2.4,0.2,4.1,0.2,6,0v-59.6h-6V487.4z"/>
<path class="st11" d="M189.6,486.1c2.4-0.5,5-1.9,6.2-2.7v-55.6h-6L189.6,486.1L189.6,486.1z"/>
<path class="st6" d="M155.6,429H207v-57h-51.4L155.6,429L155.6,429z"/>
<path class="st10" d="M155.6,429H207v-57h-51.4L155.6,429L155.6,429z"/>
<path class="st11" d="M201.4,478.1c2.5-2.2,4.9-7.3,5.7-13.1l0.1-37.3h-6L201.4,478.1L201.4,478.1z"/>
<path class="st10" d="M207,463.1c0,13.5-11.4,24.4-25.6,24.4c-14.2,0-25.8-10.9-25.8-24.4V429H207L207,463.1"/>
<path class="st6" d="M258.6,429v34.2c0,13.5-11.5,24.4-25.8,24.4c-14.2,0-25.8-10.9-25.8-24.4V429H258.6"/>
<path class="st10" d="M258.6,429v34.2c0,13.5-11.5,24.4-25.8,24.4c-14.2,0-25.8-10.9-25.8-24.4V429H258.6"/>
<path class="st6" d="M190.5,428.8c0-10.3,7.5-18.7,16.6-18.7c9.2,0,16.6,8.4,16.6,18.7c0,10.3-7.5,18.7-16.6,18.7
	C198,447.5,190.5,439.1,190.5,428.8"/>
<path class="st14" d="M190.5,428.8c0-10.3,7.5-18.7,16.6-18.7c9.2,0,16.6,8.4,16.6,18.7c0,10.3-7.5,18.7-16.6,18.7
	C198,447.5,190.5,439.1,190.5,428.8z"/>
<path class="st5" d="M195.4,428.7c0-7.6,5.2-13.7,11.7-13.7c6.5,0,11.7,6.1,11.7,13.7c0,7.6-5.2,13.7-11.7,13.7
	C200.7,442.5,195.4,436.3,195.4,428.7"/>
<path class="st14" d="M195.4,428.7c0-7.6,5.2-13.7,11.7-13.7c6.5,0,11.7,6.1,11.7,13.7c0,7.6-5.2,13.7-11.7,13.7
	C200.7,442.5,195.4,436.3,195.4,428.7L195.4,428.7z"/>
</svg>
